<svg xmlns="http://www.w3.org/2000/svg" fill="none" viewBox="0 0 146 35"><g clip-path="url(#a)"><path fill="#5A28BE" d="M136.376 18.645c5.3 0 9.597-4.137 9.597-9.24 0-5.104-4.297-9.24-9.597-9.24h-22.255c-5.3 0-9.597 4.136-9.597 9.24 0 5.103 4.297 9.24 9.597 9.24h22.255Z"/><path fill="#252525" d="M37.192 7.293v11.999c0 1.283-.327 2.283-.98 3-.654.716-1.576 1.074-2.767 1.074-1.19 0-2.113-.358-2.766-1.075-.653-.716-.98-1.716-.98-3V7.294h-5.532v11.515c0 6.773 5.21 8.708 9.278 8.708 4.068 0 9.279-1.935 9.279-8.708V7.293h-5.532ZM55.753 27.515c-2.044 0-3.846-.43-5.406-1.29a9.068 9.068 0 0 1-3.63-3.625c-.86-1.557-1.29-3.346-1.29-5.364 0-2.056.437-3.87 1.31-5.44a9.168 9.168 0 0 1 3.649-3.644c1.56-.86 3.348-1.29 5.367-1.29 1.98 0 3.714.409 5.202 1.225a8.409 8.409 0 0 1 3.436 3.467c.802 1.495 1.204 3.227 1.204 5.196a16.24 16.24 0 0 1-.117 1.869H50.862c.142 1.084.443 1.981.902 2.691.46.71 1.042 1.231 1.747 1.56.706.331 1.505.496 2.397.496.673 0 1.291-.102 1.854-.308a3.81 3.81 0 0 0 1.408-.87c.375-.373.64-.809.795-1.308h5.416a7.003 7.003 0 0 1-1.62 3.449c-.861 1.003-1.98 1.785-3.359 2.345-1.378.561-2.928.841-4.649.841Zm4.387-12.447c-.078-.91-.3-1.695-.67-2.355a3.645 3.645 0 0 0-1.523-1.495c-.647-.337-1.392-.505-2.233-.505-.776 0-1.494.143-2.154.43-.66.286-1.223.754-1.689 1.401-.466.649-.79 1.49-.97 2.524h9.24ZM95.718 27.403c-1.773 0-3.17-.27-4.193-.813-1.022-.542-1.734-1.261-2.135-2.158-.401-.897-.602-1.944-.602-3.14V2.134h5.513v5.177h7.337v4.187h-7.337v9.513c0 .66.21 1.169.631 1.523.42.356 1.116.533 2.087.533h4.619v4.336h-5.92ZM73.308 12.675c0-.841.878-1.925 3.422-1.925 2.302 0 3.494 1.375 3.494 2.486h5.28c-.104-1.358-.876-6.355-8.496-6.355-8.086 0-9.174 4.948-9.174 6.219 0 1.159.262 2.357.786 3.099.524.74 1.32 1.336 2.388 1.784 1.068.449 2.526.848 4.377 1.197 1.139.224 2.538.433 3.166.626.627.193 1.077.436 1.349.729s.407.676.407 1.15c0 .56-.284 1.027-.854 1.4-.569.375-1.404.562-2.504.562-1.242 0-2.21-.262-2.902-.785-.652-.494-1.01-1.156-1.083-1.982h-5.378c.16 2.108 1.025 3.738 2.599 4.888 1.61 1.177 3.853 1.766 6.726 1.766 1.954 0 3.6-.277 4.94-.831 1.34-.555 2.352-1.328 3.037-2.318.686-.99 1.03-2.171 1.03-3.542 0-4.002-3.388-4.992-6.757-5.637-3.636-.697-5.853-.738-5.853-2.53ZM20.32 24.245c-1.23-.935-3.133-1.402-5.708-1.402H7.3c-.635 0-1.123-.128-1.466-.383a1.207 1.207 0 0 1-.514-1.019c0-.299.11-.573.33-.822.22-.25.537-.461.95-.636.518.137 1.058.24 1.622.308.562.07 1.929.103 2.55.103 1.799 0 4.12-.261 5.414-.784 1.294-.524 2.29-1.29 2.989-2.3.699-1.009 1.048-2.224 1.048-3.644s-.359-2.642-1.077-3.663c-.573-.816-1.338-1.474-2.286-1.98l.013-.002v-.729h3.988V2.88h-1.825c-3.75 0-4.584 2.45-5.077 4.239a21.226 21.226 0 0 0-3.226-.256c-1.773 0-4.084.268-5.384.803-1.301.536-2.31 1.315-3.028 2.337-.719 1.021-1.078 2.242-1.078 3.663 0 1.072.214 2.034.64 2.887a5.866 5.866 0 0 0 1.864 2.16v.149c-1.048.523-1.814 1.109-2.3 1.757-.485.648-.728 1.414-.728 2.299 0 2.922 3.07 4.093 6.58 4.093h6.81c.893 0 1.585.152 2.077.458.491.305.737.781.737 1.43 0 .772-.45 1.364-1.349 1.775-.9.411-2.448.617-4.13.617-2.678 0-6.371-.435-6.371-2.9H0c0 4.328 3.668 6.302 10.616 6.302 2.471 0 5.284-.287 6.889-.86 1.604-.573 2.782-1.358 3.532-2.355.75-.997 1.126-2.13 1.126-3.402 0-1.62-.615-2.897-1.844-3.831Zm-9.568-14c3.724 0 4.093 2.22 4.093 3.44 0 3.193-2.925 3.327-4.093 3.327-3.493 0-4.133-1.754-4.133-3.365 0-1.586.662-3.401 4.133-3.401Z"/><path fill="#fff" d="M138.986 15.068h-1.478V5.326l-3.938 8.521h-1.562l-3.937-8.456v9.677h-1.478V3.74h2.258l3.938 8.449 3.938-8.449h2.259v11.327ZM113.493 3.75l4.173 5.537-4.417 5.78h-1.738l4.349-5.78-4.156-5.538h1.789ZM122.203 3.75l-4.173 5.537 4.417 5.78h1.738l-4.35-5.78 4.157-5.538h-1.789Z"/></g><defs><clipPath id="a"><path fill="#fff" d="M0 .164h145.973v34.528H0z"/></clipPath></defs></svg>